<?xml version="1.0" encoding="utf-8"?>
<!-- Generator: Adobe Illustrator 27.0.1, SVG Export Plug-In . SVG Version: 6.00 Build 0)  -->
<svg version="1.1" id="Layer_1" xmlns="http://www.w3.org/2000/svg" xmlns:xlink="http://www.w3.org/1999/xlink" x="0px" y="0px"
	 viewBox="0 0 842.4 842.4" style="enable-background:new 0 0 842.4 842.4;" xml:space="preserve">
<style type="text/css">
	.st0{fill:none;}
	.st1{clip-path:url(#SVGID_00000118369512021000215390000002874475702289034382_);}
	.st2{fill:#FFFFFF;stroke:#FFFFFF;stroke-width:1.07;stroke-linecap:round;stroke-linejoin:round;stroke-miterlimit:10;}
	.st3{clip-path:url(#SVGID_00000032611122403655690630000012346026684841350796_);}
	.st4{fill:#FFFFFF;}
	.st5{fill:none;stroke:#000000;stroke-width:2.13;stroke-linejoin:round;stroke-miterlimit:10;stroke-opacity:0.3;}
	.st6{fill:#FF8080;stroke:#FF8080;stroke-width:0.71;stroke-linecap:round;stroke-linejoin:round;stroke-miterlimit:10;}
	.st7{fill:#8080FF;stroke:#8080FF;stroke-width:0.71;stroke-linecap:round;stroke-linejoin:round;stroke-miterlimit:10;}
	.st8{font-family:'ArialMT';}
	.st9{font-size:11.38px;}
	.st10{enable-background:new    ;}
	.st11{letter-spacing:8;}
	.st12{letter-spacing:4;}
	.st13{letter-spacing:1;}
	.st14{clip-path:url(#SVGID_00000180339567080054079280000009773391234549009813_);}
	.st15{clip-path:url(#SVGID_00000072962246930970174910000015933969892914788500_);}
	.st16{fill:none;stroke:#000000;stroke-width:1.39;stroke-linejoin:round;stroke-miterlimit:10;}
	.st17{fill:none;stroke:#333333;stroke-width:1.39;stroke-linejoin:round;stroke-miterlimit:10;}
	.st18{fill:#4D4D4D;}
	.st19{font-size:12px;}
	.st20{font-size:14px;}
	.st21{letter-spacing:3;}
	.st22{clip-path:url(#SVGID_00000129896296742336171410000013701762670051563918_);}
	.st23{clip-path:url(#SVGID_00000160912047367078041120000008675063592468686258_);}
	.st24{stroke:#000000;stroke-width:0.71;stroke-linecap:round;stroke-linejoin:round;stroke-miterlimit:10;}
	.st25{clip-path:url(#SVGID_00000128444696605973222060000015290636089155184290_);}
	.st26{clip-path:url(#SVGID_00000165212929375160522400000016761747720858802840_);}
	.st27{clip-path:url(#SVGID_00000006675260842251457550000006830311907435057794_);}
	.st28{clip-path:url(#SVGID_00000042015427217031235610000016573592437656335018_);}
	.st29{clip-path:url(#SVGID_00000176743319013562675560000004044342092980847018_);}
	.st30{clip-path:url(#SVGID_00000083085608471882890430000008448605735113923994_);}
	.st31{fill:#1A1A1A;}
	.st32{clip-path:url(#SVGID_00000033368020760934438530000003090140751260279446_);}
	.st33{clip-path:url(#SVGID_00000110444514921962721410000010343685370651965058_);}
	.st34{clip-path:url(#SVGID_00000098927782748887685660000011940586486804120727_);}
	.st35{clip-path:url(#SVGID_00000099646788790883534150000000106245092793280662_);}
	.st36{clip-path:url(#SVGID_00000058578760870450945290000015882943786025491097_);}
	.st37{clip-path:url(#SVGID_00000052087683462057243100000008622001655632771001_);}
	.st38{clip-path:url(#SVGID_00000000204554991332546600000010054470929729373323_);}
	.st39{clip-path:url(#SVGID_00000037678240879484589330000013150493976385532833_);}
	.st40{opacity:0.69;fill:none;stroke:#000000;stroke-width:2;stroke-miterlimit:10;}
</style>
<rect y="0" class="st0" width="842.4" height="842.4"/>
<g>
	<defs>
		<rect id="SVGID_1_" y="0" width="842.4" height="842.4"/>
	</defs>
	<clipPath id="SVGID_00000137105703884944081510000015810200958920712121_">
		<use xlink:href="#SVGID_1_"  style="overflow:visible;"/>
	</clipPath>
</g>
<g>
	<defs>
		<rect id="SVGID_00000031911515533985110030000004626627428674746015_" y="0" width="561.6" height="421.2"/>
	</defs>
	<clipPath id="SVGID_00000121278434441934784910000012031616838021374638_">
		<use xlink:href="#SVGID_00000031911515533985110030000004626627428674746015_"  style="overflow:visible;"/>
	</clipPath>
	<g style="clip-path:url(#SVGID_00000121278434441934784910000012031616838021374638_);">
		<rect y="0" class="st2" width="561.6" height="421.2"/>
	</g>
</g>
<g>
	<defs>
		<rect id="SVGID_00000091008944749754691240000016078119339931603862_" y="0" width="842.4" height="842.4"/>
	</defs>
	<clipPath id="SVGID_00000071550632896227815630000007988274812229834384_">
		<use xlink:href="#SVGID_00000091008944749754691240000016078119339931603862_"  style="overflow:visible;"/>
	</clipPath>
</g>
<g>
	<defs>
		<rect id="SVGID_00000003788954409070750940000017221908331085634701_" x="24.2" y="28" width="532" height="154.4"/>
	</defs>
	<clipPath id="SVGID_00000005954178129159325110000004872763677588846772_">
		<use xlink:href="#SVGID_00000003788954409070750940000017221908331085634701_"  style="overflow:visible;"/>
	</clipPath>
	<g style="clip-path:url(#SVGID_00000005954178129159325110000004872763677588846772_);">
		<rect x="24.2" y="28" class="st4" width="532" height="154.4"/>
		<line class="st5" x1="223.2" y1="35.6" x2="492.7" y2="35.6"/>
		<line class="st5" x1="260.6" y1="48.3" x2="458.6" y2="48.3"/>
		<line class="st5" x1="206.9" y1="86.3" x2="525.1" y2="86.3"/>
		<line class="st5" x1="260.6" y1="61" x2="434" y2="61"/>
		<line class="st5" x1="262.4" y1="73.6" x2="460.2" y2="73.6"/>
		<line class="st5" x1="248.1" y1="98.9" x2="464.2" y2="98.9"/>
		<line class="st5" x1="319.2" y1="124.3" x2="357.9" y2="124.3"/>
		<line class="st5" x1="342.3" y1="111.6" x2="387.9" y2="111.6"/>
		<line class="st5" x1="351" y1="136.9" x2="417.9" y2="136.9"/>
		<line class="st5" x1="367.5" y1="149.6" x2="390.7" y2="149.6"/>
		<line class="st5" x1="386.6" y1="162.2" x2="413.8" y2="162.2"/>
		<line class="st5" x1="334.9" y1="174.9" x2="340" y2="174.9"/>
		<circle class="st6" cx="223.2" cy="35.6" r="4.6"/>
		<circle class="st6" cx="260.6" cy="48.3" r="4.6"/>
		<circle class="st6" cx="206.9" cy="86.3" r="4.6"/>
		<circle class="st6" cx="260.6" cy="61" r="4.6"/>
		<circle class="st6" cx="262.4" cy="73.6" r="4.6"/>
		<circle class="st6" cx="248.1" cy="98.9" r="4.6"/>
		<circle class="st6" cx="319.2" cy="124.3" r="4.6"/>
		<circle class="st6" cx="342.3" cy="111.6" r="4.6"/>
		<circle class="st6" cx="351" cy="136.9" r="4.6"/>
		<circle class="st6" cx="367.5" cy="149.6" r="4.6"/>
		<circle class="st6" cx="386.6" cy="162.2" r="4.6"/>
		<circle class="st6" cx="334.9" cy="174.9" r="4.6"/>
		<circle class="st7" cx="492.7" cy="35.6" r="4.6"/>
		<circle class="st7" cx="458.6" cy="48.3" r="4.6"/>
		<circle class="st7" cx="525.1" cy="86.3" r="4.6"/>
		<circle class="st7" cx="434" cy="61" r="4.6"/>
		<circle class="st7" cx="460.2" cy="73.6" r="4.6"/>
		<circle class="st7" cx="464.2" cy="98.9" r="4.6"/>
		<circle class="st7" cx="357.9" cy="124.3" r="4.6"/>
		<circle class="st7" cx="387.9" cy="111.6" r="4.6"/>
		<circle class="st7" cx="417.9" cy="136.9" r="4.6"/>
		<circle class="st7" cx="390.7" cy="149.6" r="4.6"/>
		<circle class="st7" cx="413.8" cy="162.2" r="4.6"/>
		<circle class="st7" cx="340" cy="174.9" r="4.6"/>
		<text transform="matrix(1 0 0 1 40.9102 39.71)" class="st8 st9">GPT: Degree</text>
		<text transform="matrix(1 0 0 1 37.1206 52.37)" class="st8 st9">GPT: Direction</text>
		<rect x="49.9" y="80.6" class="st0" width="47.8" height="13.5"/>
		<text transform="matrix(1 0 0 1 49.873 90.3498)" class="st10"><tspan x="0" y="0" class="st8 st9 st11">SiE</tspan><tspan x="44.1" y="0" class="st8 st9">-</tspan></text>
		<text transform="matrix(1 0 0 1 40.5935 65.03)" class="st8 st9">GPT: Subject</text>
		<text transform="matrix(1 0 0 1 47.5504 77.69)" class="st8 st9">TweetEval</text>
		<rect x="46.4" y="93.2" class="st0" width="54.8" height="13.5"/>
		<text transform="matrix(1 0 0 1 46.4004 103.0099)" class="st10"><tspan x="0" y="0" class="st8 st9 st12">Distil</tspan><tspan x="51" y="0" class="st8 st9">-</tspan></text>
		<text transform="matrix(1 0 0 1 51.9763 128.33)" class="st8 st9">Hu &amp; Liu</text>
		<text transform="matrix(1 0 0 1 61.4726 115.67)" class="st8 st9">NRC</text>
		<text transform="matrix(1 0 0 1 54.6185 140.99)" class="st8 st9">VADER</text>
		<text transform="matrix(1 0 0 1 44.3859 153.65)" class="st8 st9">SenticNet 4</text>
		<rect x="52.6" y="156.5" class="st0" width="42.4" height="13.5"/>
		<text transform="matrix(1 0 0 1 52.6152 166.3098)" class="st10"><tspan x="0" y="0" class="st8 st9 st13">SO-C</tspan><tspan x="34.8" y="0" class="st8 st9">A</tspan></text>
		<text transform="matrix(1 0 0 1 35.8426 178.96)" class="st8 st9">Sentiwordnet 3</text>
	</g>
</g>
<g>
	<defs>
		<rect id="SVGID_00000154414030213903366660000003376280576130723244_" y="0" width="842.4" height="842.4"/>
	</defs>
	<clipPath id="SVGID_00000063592588721572260760000000183304933582125715_">
		<use xlink:href="#SVGID_00000154414030213903366660000003376280576130723244_"  style="overflow:visible;"/>
	</clipPath>
</g>
<g>
	<defs>
		<rect id="SVGID_00000091697771188682728560000007822508360111430036_" x="24.2" y="210.5" width="532" height="154.4"/>
	</defs>
	<clipPath id="SVGID_00000082361483994638642140000005452283047426840456_">
		<use xlink:href="#SVGID_00000091697771188682728560000007822508360111430036_"  style="overflow:visible;"/>
	</clipPath>
	<g style="clip-path:url(#SVGID_00000082361483994638642140000005452283047426840456_);">
		<rect x="24.2" y="210.5" class="st4" width="532" height="154.4"/>
		<line class="st5" x1="426.8" y1="218.1" x2="130.1" y2="218.1"/>
		<line class="st5" x1="405.2" y1="230.8" x2="196" y2="230.8"/>
		<line class="st5" x1="377.7" y1="243.4" x2="201.8" y2="243.4"/>
		<line class="st5" x1="392.7" y1="256.1" x2="186.8" y2="256.1"/>
		<line class="st5" x1="429.1" y1="268.8" x2="177.9" y2="268.8"/>
		<line class="st5" x1="390.7" y1="281.4" x2="220.7" y2="281.4"/>
		<line class="st5" x1="405.2" y1="319.4" x2="303.1" y2="319.4"/>
		<line class="st5" x1="381" y1="294.1" x2="331.1" y2="294.1"/>
		<line class="st5" x1="368.5" y1="306.8" x2="328.6" y2="306.8"/>
		<line class="st5" x1="399.8" y1="332.1" x2="374.1" y2="332.1"/>
		<line class="st5" x1="338.8" y1="357.4" x2="327.6" y2="357.4"/>
		<line class="st5" x1="398.1" y1="344.7" x2="378" y2="344.7"/>
		<circle class="st6" cx="426.8" cy="218.1" r="4.6"/>
		<circle class="st6" cx="405.2" cy="230.8" r="4.6"/>
		<circle class="st6" cx="377.7" cy="243.4" r="4.6"/>
		<circle class="st6" cx="392.7" cy="256.1" r="4.6"/>
		<circle class="st6" cx="429.1" cy="268.8" r="4.6"/>
		<circle class="st6" cx="390.7" cy="281.4" r="4.6"/>
		<circle class="st6" cx="405.2" cy="319.4" r="4.6"/>
		<circle class="st6" cx="381" cy="294.1" r="4.6"/>
		<circle class="st6" cx="368.5" cy="306.8" r="4.6"/>
		<circle class="st6" cx="399.8" cy="332.1" r="4.6"/>
		<circle class="st6" cx="338.8" cy="357.4" r="4.6"/>
		<circle class="st6" cx="398.1" cy="344.7" r="4.6"/>
		<circle class="st7" cx="130.1" cy="218.1" r="4.6"/>
		<circle class="st7" cx="196" cy="230.8" r="4.6"/>
		<circle class="st7" cx="201.8" cy="243.4" r="4.6"/>
		<circle class="st7" cx="186.8" cy="256.1" r="4.6"/>
		<circle class="st7" cx="177.9" cy="268.8" r="4.6"/>
		<circle class="st7" cx="220.7" cy="281.4" r="4.6"/>
		<circle class="st7" cx="303.1" cy="319.4" r="4.6"/>
		<circle class="st7" cx="331.1" cy="294.1" r="4.6"/>
		<circle class="st7" cx="328.6" cy="306.8" r="4.6"/>
		<circle class="st7" cx="374.1" cy="332.1" r="4.6"/>
		<circle class="st7" cx="327.6" cy="357.4" r="4.6"/>
		<circle class="st7" cx="378" cy="344.7" r="4.6"/>
		<text transform="matrix(1 0 0 1 40.9102 222.2)" class="st8 st9">GPT: Degree</text>
		<text transform="matrix(1 0 0 1 37.1206 234.86)" class="st8 st9">GPT: Direction</text>
		<text transform="matrix(1 0 0 1 40.5935 247.52)" class="st8 st9">GPT: Subject</text>
		<text transform="matrix(1 0 0 1 47.5504 260.18)" class="st8 st9">TweetEval</text>
		<rect x="49.9" y="263.1" class="st0" width="47.8" height="13.5"/>
		<text transform="matrix(1 0 0 1 49.873 272.84)" class="st10"><tspan x="0" y="0" class="st8 st9 st11">SiE</tspan><tspan x="44.1" y="0" class="st8 st9">-</tspan></text>
		<rect x="46.4" y="275.7" class="st0" width="54.8" height="13.5"/>
		<text transform="matrix(1 0 0 1 46.4004 285.5002)" class="st10"><tspan x="0" y="0" class="st8 st9 st12">Distil</tspan><tspan x="51" y="0" class="st8 st9">-</tspan></text>
		<text transform="matrix(1 0 0 1 54.6185 323.48)" class="st8 st9">VADER</text>
		<text transform="matrix(1 0 0 1 61.4726 298.16)" class="st8 st9">NRC</text>
		<text transform="matrix(1 0 0 1 51.9763 310.82)" class="st8 st9">Hu &amp; Liu</text>
		<text transform="matrix(1 0 0 1 44.3859 336.14)" class="st8 st9">SenticNet 4</text>
		<text transform="matrix(1 0 0 1 35.8426 361.45)" class="st8 st9">Sentiwordnet 3</text>
		<rect x="52.6" y="339" class="st0" width="42.4" height="13.5"/>
		<text transform="matrix(1 0 0 1 52.6152 348.7902)" class="st10"><tspan x="0" y="0" class="st8 st9 st13">SO-C</tspan><tspan x="34.8" y="0" class="st8 st9">A</tspan></text>
	</g>
</g>
<g>
	<defs>
		<rect id="SVGID_00000166673880639204836390000016743161934437222818_" y="0" width="842.4" height="842.4"/>
	</defs>
	<clipPath id="SVGID_00000036941400959390102470000010484683731146876081_">
		<use xlink:href="#SVGID_00000166673880639204836390000016743161934437222818_"  style="overflow:visible;"/>
	</clipPath>
</g>
<g>
	<defs>
		<rect id="SVGID_00000094618889884684953820000006707798952770988222_" y="0" width="842.4" height="842.4"/>
	</defs>
	<clipPath id="SVGID_00000055691418233401560470000009525931567384864675_">
		<use xlink:href="#SVGID_00000094618889884684953820000006707798952770988222_"  style="overflow:visible;"/>
	</clipPath>
</g>
<g>
	<defs>
		<rect id="SVGID_00000048461142865111661700000005479975127079767701_" y="0" width="842.4" height="842.4"/>
	</defs>
	<clipPath id="SVGID_00000167386351404250189530000004197855981368087455_">
		<use xlink:href="#SVGID_00000048461142865111661700000005479975127079767701_"  style="overflow:visible;"/>
	</clipPath>
	<g style="clip-path:url(#SVGID_00000167386351404250189530000004197855981368087455_);">
		<line class="st16" x1="24.2" y1="365" x2="556.1" y2="365"/>
		<line class="st17" x1="124.7" y1="370.6" x2="124.7" y2="365"/>
		<line class="st17" x1="175.6" y1="370.6" x2="175.6" y2="365"/>
		<line class="st17" x1="226.5" y1="370.6" x2="226.5" y2="365"/>
		<line class="st17" x1="277.4" y1="370.6" x2="277.4" y2="365"/>
		<line class="st17" x1="328.3" y1="370.6" x2="328.3" y2="365"/>
		<line class="st17" x1="379.2" y1="370.6" x2="379.2" y2="365"/>
		<line class="st17" x1="430.1" y1="370.6" x2="430.1" y2="365"/>
		<line class="st17" x1="481" y1="370.6" x2="481" y2="365"/>
		<line class="st17" x1="531.9" y1="370.6" x2="531.9" y2="365"/>
		<rect x="114.4" y="371.1" class="st0" width="20.7" height="14.2"/>
		<text transform="matrix(1 0 0 1 114.3613 381.4401)" class="st18 st8 st19">-0.8</text>
		<rect x="165.3" y="371.1" class="st0" width="20.7" height="14.2"/>
		<text transform="matrix(1 0 0 1 165.271 381.4401)" class="st18 st8 st19">-0.6</text>
		<rect x="216.2" y="371.1" class="st0" width="20.7" height="14.2"/>
		<text transform="matrix(1 0 0 1 216.1709 381.4401)" class="st18 st8 st19">-0.4</text>
		<rect x="267.1" y="371.1" class="st0" width="20.7" height="14.2"/>
		<text transform="matrix(1 0 0 1 267.0811 381.4401)" class="st18 st8 st19">-0.2</text>
		<text transform="matrix(1 0 0 1 319.9792 381.44)" class="st18 st8 st19">0.0</text>
		<text transform="matrix(1 0 0 1 370.8892 381.44)" class="st18 st8 st19">0.2</text>
		<text transform="matrix(1 0 0 1 421.7892 381.44)" class="st18 st8 st19">0.4</text>
		<text transform="matrix(1 0 0 1 472.6992 381.44)" class="st18 st8 st19">0.6</text>
		<text transform="matrix(1 0 0 1 523.5992 381.44)" class="st18 st8 st19">0.8</text>
		<rect x="239.6" y="385.6" class="st0" width="105" height="16.6"/>
		<text transform="matrix(1 0 0 1 239.561 397.6003)" class="st10"><tspan x="0" y="0" class="st8 st20">Estimated</tspan><tspan x="62.2" y="0" class="st8 st20 st21"> </tspan><tspan x="70" y="0" class="st8 st20">Mean</tspan></text>
		<text transform="matrix(1 0 0 1 218.1576 412.72)" class="st8 st20">Sentiment (continuous)</text>
	</g>
</g>
<g>
	<defs>
		<rect id="SVGID_00000182492061655820137180000012085550527116317098_" x="561.6" y="0" width="280.8" height="421.2"/>
	</defs>
	<clipPath id="SVGID_00000138554459514592972140000014471658255958729360_">
		<use xlink:href="#SVGID_00000182492061655820137180000012085550527116317098_"  style="overflow:visible;"/>
	</clipPath>
	<g style="clip-path:url(#SVGID_00000138554459514592972140000014471658255958729360_);">
		<rect x="561.6" y="0" class="st2" width="280.8" height="421.2"/>
	</g>
</g>
<g>
	<defs>
		<rect id="SVGID_00000146494957073595277640000003764586982153287350_" y="0" width="842.4" height="842.4"/>
	</defs>
	<clipPath id="SVGID_00000025421655983829125670000008817537311431624362_">
		<use xlink:href="#SVGID_00000146494957073595277640000003764586982153287350_"  style="overflow:visible;"/>
	</clipPath>
</g>
<g>
	<defs>
		<rect id="SVGID_00000128479048121936949030000005227141781333340851_" x="585.8" y="5.5" width="251.2" height="177"/>
	</defs>
	<clipPath id="SVGID_00000000926294933946845440000013223134716707637422_">
		<use xlink:href="#SVGID_00000128479048121936949030000005227141781333340851_"  style="overflow:visible;"/>
	</clipPath>
	<g style="clip-path:url(#SVGID_00000000926294933946845440000013223134716707637422_);">
		<rect x="585.8" y="5.5" class="st4" width="251.2" height="177"/>
		<line class="st5" x1="764.8" y1="14.2" x2="770" y2="14.2"/>
		<line class="st5" x1="741.9" y1="28.7" x2="748.8" y2="28.7"/>
		<line class="st5" x1="736.9" y1="72.2" x2="744.2" y2="72.2"/>
		<line class="st5" x1="721.8" y1="43.2" x2="730.1" y2="43.2"/>
		<line class="st5" x1="717.3" y1="57.7" x2="726" y2="57.7"/>
		<line class="st5" x1="711.1" y1="86.7" x2="720" y2="86.7"/>
		<line class="st5" x1="655.4" y1="115.8" x2="666.4" y2="115.8"/>
		<line class="st5" x1="652.2" y1="101.2" x2="663.6" y2="101.2"/>
		<line class="st5" x1="644" y1="130.3" x2="655.4" y2="130.3"/>
		<line class="st5" x1="629.4" y1="144.8" x2="641" y2="144.8"/>
		<line class="st5" x1="620" y1="159.3" x2="631.9" y2="159.3"/>
		<line class="st5" x1="609.3" y1="173.8" x2="621.4" y2="173.8"/>
		<circle class="st24" cx="767.5" cy="14.2" r="4.6"/>
		<circle class="st24" cx="745.4" cy="28.7" r="4.6"/>
		<circle class="st24" cx="740.6" cy="72.2" r="4.6"/>
		<circle class="st24" cx="726" cy="43.2" r="4.6"/>
		<circle class="st24" cx="721.6" cy="57.7" r="4.6"/>
		<circle class="st24" cx="715.7" cy="86.7" r="4.6"/>
		<circle class="st24" cx="660.9" cy="115.8" r="4.6"/>
		<circle class="st24" cx="657.9" cy="101.2" r="4.6"/>
		<circle class="st24" cx="649.9" cy="130.3" r="4.6"/>
		<circle class="st24" cx="635.3" cy="144.8" r="4.6"/>
		<circle class="st24" cx="626" cy="159.3" r="4.6"/>
		<circle class="st24" cx="615.5" cy="173.8" r="4.6"/>
	</g>
</g>
<g>
	<defs>
		<rect id="SVGID_00000012463336482956140730000005125794353889275838_" y="0" width="842.4" height="842.4"/>
	</defs>
	<clipPath id="SVGID_00000121983737240330558490000012746248977927121539_">
		<use xlink:href="#SVGID_00000012463336482956140730000005125794353889275838_"  style="overflow:visible;"/>
	</clipPath>
</g>
<g>
	<defs>
		<rect id="SVGID_00000142133931702260153150000006552529752348729736_" x="585.8" y="188" width="251.2" height="177"/>
	</defs>
	<clipPath id="SVGID_00000061434464660408839310000011486315008054144668_">
		<use xlink:href="#SVGID_00000142133931702260153150000006552529752348729736_"  style="overflow:visible;"/>
	</clipPath>
	<g style="clip-path:url(#SVGID_00000061434464660408839310000011486315008054144668_);">
		<rect x="585.8" y="188" class="st4" width="251.2" height="177"/>
		<line class="st5" x1="774.6" y1="196.7" x2="777.3" y2="196.7"/>
		<line class="st5" x1="750.2" y1="211.2" x2="754.3" y2="211.2"/>
		<line class="st5" x1="731.7" y1="225.7" x2="736.2" y2="225.7"/>
		<line class="st5" x1="724.4" y1="240.2" x2="729.2" y2="240.2"/>
		<line class="st5" x1="701.8" y1="254.7" x2="707.5" y2="254.7"/>
		<line class="st5" x1="689" y1="269.2" x2="694.9" y2="269.2"/>
		<line class="st5" x1="663.4" y1="312.8" x2="670.2" y2="312.8"/>
		<line class="st5" x1="660.4" y1="283.7" x2="667.3" y2="283.7"/>
		<line class="st5" x1="652.4" y1="298.2" x2="659.3" y2="298.2"/>
		<line class="st5" x1="631.9" y1="327.2" x2="639" y2="327.2"/>
		<line class="st5" x1="631" y1="356.3" x2="638.3" y2="356.3"/>
		<line class="st5" x1="614.3" y1="341.8" x2="621.6" y2="341.8"/>
		<circle class="st24" cx="776" cy="196.7" r="4.6"/>
		<circle class="st24" cx="752.2" cy="211.2" r="4.6"/>
		<circle class="st24" cx="734" cy="225.7" r="4.6"/>
		<circle class="st24" cx="726.9" cy="240.2" r="4.6"/>
		<circle class="st24" cx="704.7" cy="254.7" r="4.6"/>
		<circle class="st24" cx="691.9" cy="269.2" r="4.6"/>
		<circle class="st24" cx="666.8" cy="312.8" r="4.6"/>
		<circle class="st24" cx="663.8" cy="283.7" r="4.6"/>
		<circle class="st24" cx="655.9" cy="298.2" r="4.6"/>
		<circle class="st24" cx="635.5" cy="327.2" r="4.6"/>
		<circle class="st24" cx="634.6" cy="356.3" r="4.6"/>
		<circle class="st24" cx="618" cy="341.8" r="4.6"/>
	</g>
</g>
<g>
	<defs>
		<rect id="SVGID_00000145045472736394408260000003230748412054111923_" y="0" width="842.4" height="842.4"/>
	</defs>
	<clipPath id="SVGID_00000129203721736767717890000006636489614199678342_">
		<use xlink:href="#SVGID_00000145045472736394408260000003230748412054111923_"  style="overflow:visible;"/>
	</clipPath>
</g>
<g>
	<defs>
		<polygon id="SVGID_00000114038372343329817590000003807394931360810409_" points="585.8,188 836.9,188 836.9,188 		"/>
	</defs>
	<clipPath id="SVGID_00000106848439820115040260000011849326760500027026_">
		<use xlink:href="#SVGID_00000114038372343329817590000003807394931360810409_"  style="overflow:visible;"/>
	</clipPath>
</g>
<g>
	<defs>
		<rect id="SVGID_00000120549352520956181850000002416450564745516220_" y="0" width="842.4" height="842.4"/>
	</defs>
	<clipPath id="SVGID_00000168824788033406913950000007188907706699888060_">
		<use xlink:href="#SVGID_00000120549352520956181850000002416450564745516220_"  style="overflow:visible;"/>
	</clipPath>
</g>
<g>
	<defs>
		<polygon id="SVGID_00000142168079328367514160000004799418374732466853_" points="585.8,5.5 836.9,5.5 836.9,5.5 		"/>
	</defs>
	<clipPath id="SVGID_00000024003625703317513820000006930302695964782220_">
		<use xlink:href="#SVGID_00000142168079328367514160000004799418374732466853_"  style="overflow:visible;"/>
	</clipPath>
</g>
<g>
	<defs>
		<rect id="SVGID_00000062163908319003322860000016230202828564115095_" y="0" width="842.4" height="842.4"/>
	</defs>
	<clipPath id="SVGID_00000091708400161299718850000001309920174244458165_">
		<use xlink:href="#SVGID_00000062163908319003322860000016230202828564115095_"  style="overflow:visible;"/>
	</clipPath>
	<g style="clip-path:url(#SVGID_00000091708400161299718850000001309920174244458165_);">
		<line class="st16" x1="585.8" y1="365" x2="836.9" y2="365"/>
		<line class="st17" x1="597.2" y1="370.6" x2="597.2" y2="365"/>
		<line class="st17" x1="642.8" y1="370.6" x2="642.8" y2="365"/>
		<line class="st17" x1="688.5" y1="370.6" x2="688.5" y2="365"/>
		<line class="st17" x1="734.2" y1="370.6" x2="734.2" y2="365"/>
		<line class="st17" x1="779.8" y1="370.6" x2="779.8" y2="365"/>
		<line class="st17" x1="825.5" y1="370.6" x2="825.5" y2="365"/>
		<text transform="matrix(1 0 0 1 588.8392 381.44)" class="st18 st8 st19">0.0</text>
		<text transform="matrix(1 0 0 1 634.5092 381.44)" class="st18 st8 st19">0.2</text>
		<text transform="matrix(1 0 0 1 680.1692 381.44)" class="st18 st8 st19">0.4</text>
		<text transform="matrix(1 0 0 1 725.8392 381.44)" class="st18 st8 st19">0.6</text>
		<text transform="matrix(1 0 0 1 771.4992 381.44)" class="st18 st8 st19">0.8</text>
		<text transform="matrix(1 0 0 1 817.1592 381.44)" class="st18 st8 st19">1.0</text>
		<rect x="617.6" y="385.6" class="st0" width="191.4" height="16.6"/>
		<text transform="matrix(1 0 0 1 617.5615 397.6003)" class="st10"><tspan x="0" y="0" class="st8 st20">Correlation</tspan><tspan x="68.5" y="0" class="st8 st20 st13"> </tspan><tspan x="73.6" y="0" class="st8 st20">between</tspan><tspan x="126.6" y="0" class="st8 st20 st13"> </tspan><tspan x="131.7" y="0" class="st8 st20">party</tspan><tspan x="162.9" y="0" class="st8 st20 st13"> </tspan><tspan x="168" y="0" class="st8 st20">and</tspan></text>
		<text transform="matrix(1 0 0 1 608.2336 412.72)" class="st8 st20">estimated sentiment (continuous)</text>
	</g>
</g>
<g>
	<defs>
		<rect id="SVGID_00000115474176752115219590000010463235397126350783_" y="421.2" width="561.6" height="421.2"/>
	</defs>
	<clipPath id="SVGID_00000093141056829685120350000000219421075530803861_">
		<use xlink:href="#SVGID_00000115474176752115219590000010463235397126350783_"  style="overflow:visible;"/>
	</clipPath>
	<g style="clip-path:url(#SVGID_00000093141056829685120350000000219421075530803861_);">
		<rect y="421.2" class="st2" width="561.6" height="421.2"/>
	</g>
</g>
<g>
	<defs>
		<rect id="SVGID_00000024685393369659044630000012717713635976052664_" y="0" width="842.4" height="842.4"/>
	</defs>
	<clipPath id="SVGID_00000062156721087943534800000013366515801889712270_">
		<use xlink:href="#SVGID_00000024685393369659044630000012717713635976052664_"  style="overflow:visible;"/>
	</clipPath>
</g>
<g>
	<defs>
		<rect id="SVGID_00000090288675192618066380000011651216592484178055_" x="24.2" y="449.2" width="532" height="154.4"/>
	</defs>
	<clipPath id="SVGID_00000101064160892162617910000007724963309869444511_">
		<use xlink:href="#SVGID_00000090288675192618066380000011651216592484178055_"  style="overflow:visible;"/>
	</clipPath>
	<g style="clip-path:url(#SVGID_00000101064160892162617910000007724963309869444511_);">
		<rect x="24.2" y="449.2" class="st4" width="532" height="154.4"/>
		<line class="st5" x1="167.4" y1="456.8" x2="519.8" y2="456.8"/>
		<line class="st5" x1="182.5" y1="469.5" x2="507.1" y2="469.5"/>
		<line class="st5" x1="193.8" y1="482.2" x2="478.5" y2="482.2"/>
		<line class="st5" x1="220.8" y1="507.5" x2="484.8" y2="507.5"/>
		<line class="st5" x1="231.3" y1="494.8" x2="464.7" y2="494.8"/>
		<line class="st5" x1="232.1" y1="520.1" x2="444.5" y2="520.1"/>
		<line class="st5" x1="238" y1="545.5" x2="436.5" y2="545.5"/>
		<line class="st5" x1="311.2" y1="532.8" x2="466.3" y2="532.8"/>
		<line class="st5" x1="368.4" y1="583.4" x2="496.2" y2="583.4"/>
		<line class="st5" x1="322.1" y1="558.1" x2="450.8" y2="558.1"/>
		<line class="st5" x1="420.5" y1="570.8" x2="470.1" y2="570.8"/>
		<line class="st5" x1="357.9" y1="596.1" x2="404.5" y2="596.1"/>
		<circle class="st6" cx="167.4" cy="456.8" r="4.6"/>
		<circle class="st6" cx="182.5" cy="469.5" r="4.6"/>
		<circle class="st6" cx="193.8" cy="482.2" r="4.6"/>
		<circle class="st6" cx="220.8" cy="507.5" r="4.6"/>
		<circle class="st6" cx="231.3" cy="494.8" r="4.6"/>
		<circle class="st6" cx="232.1" cy="520.1" r="4.6"/>
		<circle class="st6" cx="238" cy="545.5" r="4.6"/>
		<circle class="st6" cx="311.2" cy="532.8" r="4.6"/>
		<circle class="st6" cx="368.4" cy="583.4" r="4.6"/>
		<circle class="st6" cx="322.1" cy="558.1" r="4.6"/>
		<circle class="st6" cx="420.5" cy="570.8" r="4.6"/>
		<circle class="st6" cx="357.9" cy="596.1" r="4.6"/>
		<circle class="st7" cx="519.8" cy="456.8" r="4.6"/>
		<circle class="st7" cx="507.1" cy="469.5" r="4.6"/>
		<circle class="st7" cx="478.5" cy="482.2" r="4.6"/>
		<circle class="st7" cx="484.8" cy="507.5" r="4.6"/>
		<circle class="st7" cx="464.7" cy="494.8" r="4.6"/>
		<circle class="st7" cx="444.5" cy="520.1" r="4.6"/>
		<circle class="st7" cx="436.5" cy="545.5" r="4.6"/>
		<circle class="st7" cx="466.3" cy="532.8" r="4.6"/>
		<circle class="st7" cx="496.2" cy="583.4" r="4.6"/>
		<circle class="st7" cx="450.8" cy="558.1" r="4.6"/>
		<circle class="st7" cx="470.1" cy="570.8" r="4.6"/>
		<circle class="st7" cx="404.5" cy="596.1" r="4.6"/>
		<text transform="matrix(1 0 0 1 36.4802 460.91)" class="st8 st9">GPT: Degree</text>
		<text transform="matrix(1 0 0 1 32.6906 473.57)" class="st8 st9">GPT: Direction</text>
		<text transform="matrix(1 0 0 1 36.1635 486.23)" class="st8 st9">GPT: Subject</text>
		<rect x="45.4" y="501.8" class="st0" width="47.8" height="13.5"/>
		<text transform="matrix(1 0 0 1 45.4429 511.55)" class="st10"><tspan x="0" y="0" class="st8 st9 st11">SiE</tspan><tspan x="44.1" y="0" class="st8 st9">-</tspan></text>
		<text transform="matrix(1 0 0 1 43.1204 498.89)" class="st8 st9">TweetEval</text>
		<rect x="42" y="514.4" class="st0" width="54.8" height="13.5"/>
		<text transform="matrix(1 0 0 1 41.9702 524.2101)" class="st10"><tspan x="0" y="0" class="st8 st9 st12">Distil</tspan><tspan x="51" y="0" class="st8 st9">-</tspan></text>
		<text transform="matrix(1 0 0 1 47.5463 549.53)" class="st8 st9">Hu &amp; Liu</text>
		<text transform="matrix(1 0 0 1 57.0426 536.87)" class="st8 st9">NRC</text>
		<rect x="48.2" y="577.7" class="st0" width="42.4" height="13.5"/>
		<text transform="matrix(1 0 0 1 48.1855 587.5099)" class="st10"><tspan x="0" y="0" class="st8 st9 st13">SO-C</tspan><tspan x="34.8" y="0" class="st8 st9">A</tspan></text>
		<text transform="matrix(1 0 0 1 50.1885 562.19)" class="st8 st9">VADER</text>
		<text transform="matrix(1 0 0 1 39.9559 574.85)" class="st8 st9">SenticNet 4</text>
		<text transform="matrix(1 0 0 1 31.4126 600.16)" class="st8 st9">Sentiwordnet 3</text>
	</g>
</g>
<g>
	<defs>
		<rect id="SVGID_00000080915083663621759960000003031531005674526857_" y="0" width="842.4" height="842.4"/>
	</defs>
	<clipPath id="SVGID_00000055672758636141695980000009671881982704161408_">
		<use xlink:href="#SVGID_00000080915083663621759960000003031531005674526857_"  style="overflow:visible;"/>
	</clipPath>
</g>
<g>
	<defs>
		<rect id="SVGID_00000163071406914875569090000005579746529902955694_" x="24.2" y="631.7" width="532" height="154.4"/>
	</defs>
	<clipPath id="SVGID_00000160870064620085007860000001079074068996269966_">
		<use xlink:href="#SVGID_00000163071406914875569090000005579746529902955694_"  style="overflow:visible;"/>
	</clipPath>
	<g style="clip-path:url(#SVGID_00000160870064620085007860000001079074068996269966_);">
		<rect x="24.2" y="631.7" class="st4" width="532" height="154.4"/>
		<line class="st5" x1="433.5" y1="639.3" x2="119.8" y2="639.3"/>
		<line class="st5" x1="442.8" y1="652" x2="150.1" y2="652"/>
		<line class="st5" x1="401.6" y1="664.7" x2="164" y2="664.7"/>
		<line class="st5" x1="382.2" y1="677.3" x2="163.6" y2="677.3"/>
		<line class="st5" x1="404.9" y1="690" x2="196.8" y2="690"/>
		<line class="st5" x1="370.5" y1="702.6" x2="207.7" y2="702.6"/>
		<line class="st5" x1="428.1" y1="740.6" x2="277.1" y2="740.6"/>
		<line class="st5" x1="449.1" y1="715.3" x2="302.8" y2="715.3"/>
		<line class="st5" x1="437.3" y1="728" x2="301.1" y2="728"/>
		<line class="st5" x1="463.8" y1="765.9" x2="353.2" y2="765.9"/>
		<line class="st5" x1="379.3" y1="778.6" x2="309.9" y2="778.6"/>
		<line class="st5" x1="477.3" y1="753.3" x2="431.9" y2="753.3"/>
		<circle class="st6" cx="433.5" cy="639.3" r="4.6"/>
		<circle class="st6" cx="442.8" cy="652" r="4.6"/>
		<circle class="st6" cx="401.6" cy="664.7" r="4.6"/>
		<circle class="st6" cx="382.2" cy="677.3" r="4.6"/>
		<circle class="st6" cx="404.9" cy="690" r="4.6"/>
		<circle class="st6" cx="370.5" cy="702.6" r="4.6"/>
		<circle class="st6" cx="428.1" cy="740.6" r="4.6"/>
		<circle class="st6" cx="449.1" cy="715.3" r="4.6"/>
		<circle class="st6" cx="437.3" cy="728" r="4.6"/>
		<circle class="st6" cx="463.8" cy="765.9" r="4.6"/>
		<circle class="st6" cx="379.3" cy="778.6" r="4.6"/>
		<circle class="st6" cx="477.3" cy="753.3" r="4.6"/>
		<circle class="st7" cx="119.8" cy="639.3" r="4.6"/>
		<circle class="st7" cx="150.1" cy="652" r="4.6"/>
		<circle class="st7" cx="164" cy="664.7" r="4.6"/>
		<circle class="st7" cx="163.6" cy="677.3" r="4.6"/>
		<circle class="st7" cx="196.8" cy="690" r="4.6"/>
		<circle class="st7" cx="207.7" cy="702.6" r="4.6"/>
		<circle class="st7" cx="277.1" cy="740.6" r="4.6"/>
		<circle class="st7" cx="302.8" cy="715.3" r="4.6"/>
		<circle class="st7" cx="301.1" cy="728" r="4.6"/>
		<circle class="st7" cx="353.2" cy="765.9" r="4.6"/>
		<circle class="st7" cx="309.9" cy="778.6" r="4.6"/>
		<circle class="st7" cx="431.9" cy="753.3" r="4.6"/>
		<text transform="matrix(1 0 0 1 36.4802 643.4)" class="st8 st9">GPT: Degree</text>
		<text transform="matrix(1 0 0 1 32.6906 656.06)" class="st8 st9">GPT: Direction</text>
		<text transform="matrix(1 0 0 1 36.1635 668.72)" class="st8 st9">GPT: Subject</text>
		<text transform="matrix(1 0 0 1 43.1204 681.38)" class="st8 st9">TweetEval</text>
		<rect x="45.4" y="684.3" class="st0" width="47.8" height="13.5"/>
		<text transform="matrix(1 0 0 1 45.4429 694.0402)" class="st10"><tspan x="0" y="0" class="st8 st9 st11">SiE</tspan><tspan x="44.1" y="0" class="st8 st9">-</tspan></text>
		<rect x="42" y="696.9" class="st0" width="54.8" height="13.5"/>
		<text transform="matrix(1 0 0 1 41.9702 706.7004)" class="st10"><tspan x="0" y="0" class="st8 st9 st12">Distil</tspan><tspan x="51" y="0" class="st8 st9">-</tspan></text>
		<text transform="matrix(1 0 0 1 50.1885 744.68)" class="st8 st9">VADER</text>
		<text transform="matrix(1 0 0 1 57.0426 719.36)" class="st8 st9">NRC</text>
		<text transform="matrix(1 0 0 1 47.5463 732.02)" class="st8 st9">Hu &amp; Liu</text>
		<rect x="48.2" y="760.2" class="st0" width="42.4" height="13.5"/>
		<text transform="matrix(1 0 0 1 48.1855 769.9904)" class="st10"><tspan x="0" y="0" class="st8 st9 st13">SO-C</tspan><tspan x="34.8" y="0" class="st8 st9">A</tspan></text>
		<text transform="matrix(1 0 0 1 31.4126 782.65)" class="st8 st9">Sentiwordnet 3</text>
		<text transform="matrix(1 0 0 1 39.9559 757.34)" class="st8 st9">SenticNet 4</text>
	</g>
</g>
<g>
	<defs>
		<rect id="SVGID_00000103983201344573033500000002420616968057690539_" y="0" width="842.4" height="842.4"/>
	</defs>
	<clipPath id="SVGID_00000000187784314958471160000009833820076244930748_">
		<use xlink:href="#SVGID_00000103983201344573033500000002420616968057690539_"  style="overflow:visible;"/>
	</clipPath>
</g>
<g>
	<defs>
		<rect id="SVGID_00000089548283719409997640000008310846603992535939_" y="0" width="842.4" height="842.4"/>
	</defs>
	<clipPath id="SVGID_00000126323383958379073370000013558854202326944951_">
		<use xlink:href="#SVGID_00000089548283719409997640000008310846603992535939_"  style="overflow:visible;"/>
	</clipPath>
</g>
<g>
	<g>
		<defs>
			<rect id="SVGID_00000148622393199023399970000003350755201667810196_" x="6.2" y="186" width="532" height="22.6"/>
		</defs>
		<clipPath id="SVGID_00000033359695482700483040000003032253643320393117_">
			<use xlink:href="#SVGID_00000148622393199023399970000003350755201667810196_"  style="overflow:visible;"/>
		</clipPath>
		<g style="clip-path:url(#SVGID_00000033359695482700483040000003032253643320393117_);">
			<text transform="matrix(1 0 0 1 10.55 202.26)" class="st31 st8 st20">Trump</text>
		</g>
	</g>
	<g>
		<defs>
			<rect id="SVGID_00000024714156268296514290000005704093793610593423_" x="6.2" y="3.5" width="532" height="22.6"/>
		</defs>
		<clipPath id="SVGID_00000024708591836894628270000018446473507445024947_">
			<use xlink:href="#SVGID_00000024714156268296514290000005704093793610593423_"  style="overflow:visible;"/>
		</clipPath>
		<g style="clip-path:url(#SVGID_00000024708591836894628270000018446473507445024947_);">
			<text transform="matrix(1 0 0 1 10.55 19.77)" class="st31 st8 st20">Biden</text>
		</g>
	</g>
	<g>
		<defs>
			<rect id="SVGID_00000121966503801911315190000013794869107028262018_" x="6.2" y="607.2" width="532" height="22.6"/>
		</defs>
		<clipPath id="SVGID_00000023990112176510544360000016236201589376646835_">
			<use xlink:href="#SVGID_00000121966503801911315190000013794869107028262018_"  style="overflow:visible;"/>
		</clipPath>
		<g style="clip-path:url(#SVGID_00000023990112176510544360000016236201589376646835_);">
			<text transform="matrix(1 0 0 1 10.55 623.46)" class="st31 st8 st20">Trump</text>
		</g>
	</g>
	<g>
		<defs>
			<rect id="SVGID_00000121962245603584029570000006387111019219013560_" x="6.2" y="424.7" width="532" height="22.6"/>
		</defs>
		<clipPath id="SVGID_00000118367882649321447870000013697640978775524995_">
			<use xlink:href="#SVGID_00000121962245603584029570000006387111019219013560_"  style="overflow:visible;"/>
		</clipPath>
		<g style="clip-path:url(#SVGID_00000118367882649321447870000013697640978775524995_);">
			<text transform="matrix(1 0 0 1 10.55 440.97)" class="st31 st8 st20">Biden</text>
		</g>
	</g>
</g>
<g>
	<defs>
		<rect id="SVGID_00000072256143844646507550000004549140241187329443_" y="0" width="842.4" height="842.4"/>
	</defs>
	<clipPath id="SVGID_00000009583155021334303830000013395612453726930595_">
		<use xlink:href="#SVGID_00000072256143844646507550000004549140241187329443_"  style="overflow:visible;"/>
	</clipPath>
	<g style="clip-path:url(#SVGID_00000009583155021334303830000013395612453726930595_);">
		<line class="st16" x1="24.2" y1="786.2" x2="556.1" y2="786.2"/>
		<line class="st17" x1="111.4" y1="791.8" x2="111.4" y2="786.2"/>
		<line class="st17" x1="195.5" y1="791.8" x2="195.5" y2="786.2"/>
		<line class="st17" x1="279.6" y1="791.8" x2="279.6" y2="786.2"/>
		<line class="st17" x1="363.7" y1="791.8" x2="363.7" y2="786.2"/>
		<line class="st17" x1="447.8" y1="791.8" x2="447.8" y2="786.2"/>
		<line class="st17" x1="531.9" y1="791.8" x2="531.9" y2="786.2"/>
		<text transform="matrix(1 0 0 1 108.0831 802.64)" class="st18 st8 st19">0</text>
		<rect x="188.9" y="792.3" class="st0" width="13.4" height="14.2"/>
		<text transform="matrix(1 0 0 1 188.856 802.6398)" class="st18 st8 st19">20</text>
		<rect x="273" y="792.3" class="st0" width="13.4" height="14.2"/>
		<text transform="matrix(1 0 0 1 272.9561 802.6398)" class="st18 st8 st19">40</text>
		<rect x="357.1" y="792.3" class="st0" width="13.4" height="14.2"/>
		<text transform="matrix(1 0 0 1 357.0566 802.6398)" class="st18 st8 st19">60</text>
		<rect x="441.2" y="792.3" class="st0" width="13.4" height="14.2"/>
		<text transform="matrix(1 0 0 1 441.166 802.6398)" class="st18 st8 st19">80</text>
		<text transform="matrix(1 0 0 1 521.9293 802.64)" class="st18 st8 st19">100</text>
		<rect x="239.6" y="806.8" class="st0" width="105" height="16.6"/>
		<text transform="matrix(1 0 0 1 239.561 818.8)" class="st10"><tspan x="0" y="0" class="st8 st20">Estimated</tspan><tspan x="62.2" y="0" class="st8 st20 st21"> </tspan><tspan x="70" y="0" class="st8 st20">Mean</tspan></text>
		<text transform="matrix(1 0 0 1 232.9506 833.92)" class="st8 st20">Sentiment (binary)</text>
	</g>
</g>
<g>
	<defs>
		<rect id="SVGID_00000065778863190463571890000016561218152321779124_" x="561.6" y="421.2" width="280.8" height="421.2"/>
	</defs>
	<clipPath id="SVGID_00000124877488528541580810000006171023488345895103_">
		<use xlink:href="#SVGID_00000065778863190463571890000016561218152321779124_"  style="overflow:visible;"/>
	</clipPath>
	<g style="clip-path:url(#SVGID_00000124877488528541580810000006171023488345895103_);">
		<rect x="561.6" y="421.2" class="st2" width="280.8" height="421.2"/>
	</g>
</g>
<g>
	<defs>
		<rect id="SVGID_00000179607491851765074930000016287015686897235595_" y="0" width="842.4" height="842.4"/>
	</defs>
	<clipPath id="SVGID_00000097467047973137419860000006285483661373519801_">
		<use xlink:href="#SVGID_00000179607491851765074930000016287015686897235595_"  style="overflow:visible;"/>
	</clipPath>
</g>
<g>
	<defs>
		<rect id="SVGID_00000151541986982498880040000000569830537988582545_" x="585.8" y="426.7" width="251.2" height="177"/>
	</defs>
	<clipPath id="SVGID_00000006704770328943388970000016131902559773019020_">
		<use xlink:href="#SVGID_00000151541986982498880040000000569830537988582545_"  style="overflow:visible;"/>
	</clipPath>
	<g style="clip-path:url(#SVGID_00000006704770328943388970000016131902559773019020_);">
		<rect x="585.8" y="426.7" class="st4" width="251.2" height="177"/>
		<line class="st5" x1="790.6" y1="435.4" x2="793.8" y2="435.4"/>
		<line class="st5" x1="772.3" y1="449.9" x2="777.1" y2="449.9"/>
		<line class="st5" x1="743.8" y1="464.4" x2="750.6" y2="464.4"/>
		<line class="st5" x1="736.2" y1="493.4" x2="743.5" y2="493.4"/>
		<line class="st5" x1="716.1" y1="478.9" x2="724.6" y2="478.9"/>
		<line class="st5" x1="702" y1="507.9" x2="711.3" y2="507.9"/>
		<line class="st5" x1="694" y1="537" x2="703.8" y2="537"/>
		<line class="st5" x1="678.9" y1="522.4" x2="689.2" y2="522.4"/>
		<line class="st5" x1="675" y1="580.5" x2="685.5" y2="580.5"/>
		<line class="st5" x1="662.2" y1="551.5" x2="673" y2="551.5"/>
		<line class="st5" x1="623" y1="566" x2="634.8" y2="566"/>
		<line class="st5" x1="615.5" y1="595" x2="627.5" y2="595"/>
		<circle class="st24" cx="792.2" cy="435.4" r="4.6"/>
		<circle class="st24" cx="774.8" cy="449.9" r="4.6"/>
		<circle class="st24" cx="747.4" cy="464.4" r="4.6"/>
		<circle class="st24" cx="739.9" cy="493.4" r="4.6"/>
		<circle class="st24" cx="720.5" cy="478.9" r="4.6"/>
		<circle class="st24" cx="706.8" cy="507.9" r="4.6"/>
		<circle class="st24" cx="699" cy="537" r="4.6"/>
		<circle class="st24" cx="684.2" cy="522.4" r="4.6"/>
		<circle class="st24" cx="680.3" cy="580.5" r="4.6"/>
		<circle class="st24" cx="667.7" cy="551.5" r="4.6"/>
		<circle class="st24" cx="628.9" cy="566" r="4.6"/>
		<circle class="st24" cx="621.4" cy="595" r="4.6"/>
	</g>
</g>
<g>
	<defs>
		<rect id="SVGID_00000062192459882254258020000009650752511887397008_" y="0" width="842.4" height="842.4"/>
	</defs>
	<clipPath id="SVGID_00000143585459814520712770000018357564595167540656_">
		<use xlink:href="#SVGID_00000062192459882254258020000009650752511887397008_"  style="overflow:visible;"/>
	</clipPath>
</g>
<g>
	<defs>
		<rect id="SVGID_00000076561702538360207090000002738350240552529586_" x="585.8" y="609.2" width="251.2" height="177"/>
	</defs>
	<clipPath id="SVGID_00000135667296447205768920000006289955121043105694_">
		<use xlink:href="#SVGID_00000076561702538360207090000002738350240552529586_"  style="overflow:visible;"/>
	</clipPath>
	<g style="clip-path:url(#SVGID_00000135667296447205768920000006289955121043105694_);">
		<rect x="585.8" y="609.2" class="st4" width="251.2" height="177"/>
		<line class="st5" x1="777.8" y1="617.9" x2="780.5" y2="617.9"/>
		<line class="st5" x1="752.7" y1="632.4" x2="756.5" y2="632.4"/>
		<line class="st5" x1="723" y1="646.9" x2="728" y2="646.9"/>
		<line class="st5" x1="714.1" y1="661.4" x2="719.6" y2="661.4"/>
		<line class="st5" x1="701.1" y1="675.9" x2="706.8" y2="675.9"/>
		<line class="st5" x1="677.5" y1="690.4" x2="683.9" y2="690.4"/>
		<line class="st5" x1="667" y1="734" x2="673.4" y2="734"/>
		<line class="st5" x1="665.2" y1="704.9" x2="671.8" y2="704.9"/>
		<line class="st5" x1="660" y1="719.4" x2="666.8" y2="719.4"/>
		<line class="st5" x1="649.9" y1="763" x2="656.8" y2="763"/>
		<line class="st5" x1="627.3" y1="777.5" x2="634.4" y2="777.5"/>
		<line class="st5" x1="620.7" y1="748.5" x2="627.8" y2="748.5"/>
		<circle class="st24" cx="779.2" cy="617.9" r="4.6"/>
		<circle class="st24" cx="754.7" cy="632.4" r="4.6"/>
		<circle class="st24" cx="725.7" cy="646.9" r="4.6"/>
		<circle class="st24" cx="716.8" cy="661.4" r="4.6"/>
		<circle class="st24" cx="703.8" cy="675.9" r="4.6"/>
		<circle class="st24" cx="680.8" cy="690.4" r="4.6"/>
		<circle class="st24" cx="670.2" cy="734" r="4.6"/>
		<circle class="st24" cx="668.7" cy="704.9" r="4.6"/>
		<circle class="st24" cx="663.4" cy="719.4" r="4.6"/>
		<circle class="st24" cx="653.3" cy="763" r="4.6"/>
		<circle class="st24" cx="631" cy="777.5" r="4.6"/>
		<circle class="st24" cx="624.3" cy="748.5" r="4.6"/>
	</g>
</g>
<g>
	<defs>
		<rect id="SVGID_00000115506696948025217890000005170152357875581616_" y="0" width="842.4" height="842.4"/>
	</defs>
	<clipPath id="SVGID_00000137837776134831577640000004265218043093760932_">
		<use xlink:href="#SVGID_00000115506696948025217890000005170152357875581616_"  style="overflow:visible;"/>
	</clipPath>
</g>
<g>
	<defs>
		<polygon id="SVGID_00000172415083087518093020000003122362124822983093_" points="585.8,609.2 836.9,609.2 836.9,609.2 		"/>
	</defs>
	<clipPath id="SVGID_00000026129908575862542630000005166323550418582673_">
		<use xlink:href="#SVGID_00000172415083087518093020000003122362124822983093_"  style="overflow:visible;"/>
	</clipPath>
</g>
<g>
	<defs>
		<rect id="SVGID_00000129889892281255110700000016475827718024039040_" y="0" width="842.4" height="842.4"/>
	</defs>
	<clipPath id="SVGID_00000178920531983160639810000000726767550875099024_">
		<use xlink:href="#SVGID_00000129889892281255110700000016475827718024039040_"  style="overflow:visible;"/>
	</clipPath>
</g>
<g>
	<defs>
		<polygon id="SVGID_00000053524094172635195030000015964803918569828253_" points="585.8,426.7 836.9,426.7 836.9,426.7 		"/>
	</defs>
	<clipPath id="SVGID_00000125597330225728825040000005285851353598691769_">
		<use xlink:href="#SVGID_00000053524094172635195030000015964803918569828253_"  style="overflow:visible;"/>
	</clipPath>
</g>
<g>
	<defs>
		<rect id="SVGID_00000088812927316053387930000016759872391780889517_" y="0" width="842.4" height="842.4"/>
	</defs>
	<clipPath id="SVGID_00000040577249326218664410000001164876181780792197_">
		<use xlink:href="#SVGID_00000088812927316053387930000016759872391780889517_"  style="overflow:visible;"/>
	</clipPath>
	<g style="clip-path:url(#SVGID_00000040577249326218664410000001164876181780792197_);">
		<line class="st16" x1="585.8" y1="786.2" x2="836.9" y2="786.2"/>
		<line class="st17" x1="597.2" y1="791.8" x2="597.2" y2="786.2"/>
		<line class="st17" x1="642.8" y1="791.8" x2="642.8" y2="786.2"/>
		<line class="st17" x1="688.5" y1="791.8" x2="688.5" y2="786.2"/>
		<line class="st17" x1="734.2" y1="791.8" x2="734.2" y2="786.2"/>
		<line class="st17" x1="779.8" y1="791.8" x2="779.8" y2="786.2"/>
		<line class="st17" x1="825.5" y1="791.8" x2="825.5" y2="786.2"/>
		<text transform="matrix(1 0 0 1 588.8392 802.64)" class="st18 st8 st19">0.0</text>
		<text transform="matrix(1 0 0 1 634.5092 802.64)" class="st18 st8 st19">0.2</text>
		<text transform="matrix(1 0 0 1 680.1692 802.64)" class="st18 st8 st19">0.4</text>
		<text transform="matrix(1 0 0 1 725.8392 802.64)" class="st18 st8 st19">0.6</text>
		<text transform="matrix(1 0 0 1 771.4992 802.64)" class="st18 st8 st19">0.8</text>
		<text transform="matrix(1 0 0 1 817.1592 802.64)" class="st18 st8 st19">1.0</text>
		<rect x="617.6" y="806.8" class="st0" width="191.4" height="16.6"/>
		<text transform="matrix(1 0 0 1 617.5615 818.8)" class="st10"><tspan x="0" y="0" class="st8 st20">Correlation</tspan><tspan x="68.5" y="0" class="st8 st20 st13"> </tspan><tspan x="73.6" y="0" class="st8 st20">between</tspan><tspan x="126.6" y="0" class="st8 st20 st13"> </tspan><tspan x="131.7" y="0" class="st8 st20">party</tspan><tspan x="162.9" y="0" class="st8 st20 st13"> </tspan><tspan x="168" y="0" class="st8 st20">and</tspan></text>
		<text transform="matrix(1 0 0 1 623.0266 833.92)" class="st8 st20">estimated sentiment (binary)</text>
	</g>
</g>
<rect y="0" class="st40" width="842.4" height="424.2"/>
<rect y="423.9" class="st40" width="842.4" height="418.5"/>
</svg>
